<?xml version="1.0" encoding="UTF-8" standalone="no"?>
<svg width="150px" height="28px" viewBox="0 0 150 28" version="1.1" xmlns="http://www.w3.org/2000/svg" xmlns:xlink="http://www.w3.org/1999/xlink" xmlns:sketch="http://www.bohemiancoding.com/sketch/ns">
    <!-- Generator: Sketch 3.2.2 (9983) - http://www.bohemiancoding.com/sketch -->
    <title>logo-light</title>
    <desc>Created with Sketch.</desc>
    <defs></defs>
    <g id="Page-1" stroke="none" stroke-width="1" fill="none" fill-rule="evenodd" sketch:type="MSPage">
        <g id="logo-light" sketch:type="MSLayerGroup" fill="#FFFFFF">
            <path d="M136.971,13.998 C136.971,10.107 133.816,6.949 129.922,6.949 C126.031,6.949 122.877,10.107 122.877,13.998 C122.877,17.897 126.031,21.047 129.922,21.047 C133.816,21.047 136.971,17.897 136.971,13.998 L136.971,13.998 Z M125.647,13.998 C125.647,11.639 127.562,9.723 129.922,9.723 C132.283,9.723 134.199,11.639 134.199,13.998 C134.199,16.361 132.283,18.277 129.922,18.277 C127.562,18.277 125.647,16.361 125.647,13.998 L125.647,13.998 Z" id="Fill-1" sketch:type="MSShapeGroup"></path>
            <path d="M50.1,7.273 L51.35,7.273 L51.35,19.547 L57.605,19.547 L57.109,20.682 L50.1,20.682 L50.1,7.273" id="Fill-2" sketch:type="MSShapeGroup"></path>
            <path d="M61.717,20.682 L60.408,20.682 L66.262,7.273 L67.553,7.273 L73.197,20.682 L71.795,20.682 L66.85,8.633 L61.717,20.682" id="Fill-3" sketch:type="MSShapeGroup"></path>
            <path d="M76.867,7.273 L78.477,7.273 L86.643,19.016 L86.678,19.016 L86.678,7.273 L87.93,7.273 L87.93,20.682 L86.32,20.682 L78.154,8.934 L78.115,8.934 L78.115,20.682 L76.867,20.682 L76.867,7.273" id="Fill-4" sketch:type="MSShapeGroup"></path>
            <path d="M110.494,8.406 L105.908,8.406 L105.908,7.273 L116.328,7.273 L116.328,8.406 L111.744,8.406 L111.744,20.682 L110.494,20.682 L110.494,8.406" id="Fill-5" sketch:type="MSShapeGroup"></path>
            <path d="M67.707,17.113 C67.707,17.586 67.324,17.967 66.85,17.967 C66.377,17.967 65.996,17.586 65.996,17.113 C65.996,16.641 66.377,16.258 66.85,16.258 C67.324,16.258 67.707,16.641 67.707,17.113" id="Fill-6" sketch:type="MSShapeGroup"></path>
            <path d="M45.492,9.273 C45.193,8.766 44.807,8.359 44.34,8.065 C43.871,7.773 43.353,7.566 42.783,7.447 C42.221,7.33 41.678,7.273 41.162,7.273 L36.885,7.273 L36.885,20.682 L38.133,20.682 L38.133,15.113 L41.162,15.113 C41.678,15.113 42.221,15.053 42.783,14.935 C43.353,14.815 43.871,14.609 44.34,14.316 C44.807,14.025 45.193,13.619 45.492,13.109 C45.793,12.602 45.943,11.963 45.943,11.191 C45.943,10.424 45.793,9.783 45.492,9.273 L45.492,9.273 Z M44.397,12.463 C44.199,12.815 43.943,13.102 43.631,13.328 C43.316,13.557 42.951,13.723 42.545,13.822 C42.164,13.914 41.783,13.965 41.404,13.975 L41.404,13.977 L38.133,13.977 L38.133,8.408 L41.404,8.408 L41.404,8.41 C41.783,8.416 42.164,8.467 42.545,8.56 C42.951,8.662 43.316,8.828 43.631,9.057 C43.943,9.281 44.199,9.568 44.397,9.92 C44.594,10.275 44.693,10.693 44.693,11.191 C44.693,11.691 44.594,12.113 44.397,12.463 L44.397,12.463 Z" id="Fill-7" sketch:type="MSShapeGroup"></path>
            <path d="M102.209,8.406 L102.209,7.273 L93.164,7.273 L93.164,20.682 L102.209,20.682 L102.209,19.547 L94.416,19.547 L94.416,14.543 L101.873,14.543 L101.873,13.41 L94.416,13.41 L94.416,8.406 L102.209,8.406" id="Fill-8" sketch:type="MSShapeGroup"></path>
            <path d="M139.199,18.824 L140.973,16.699 C142.199,17.713 143.488,18.355 145.049,18.355 C146.277,18.355 147.018,17.869 147.018,17.066 L147.018,17.031 C147.018,16.268 146.549,15.879 144.269,15.293 C141.518,14.594 139.744,13.83 139.744,11.125 L139.744,11.082 C139.744,8.607 141.734,6.967 144.522,6.967 C146.51,6.967 148.207,7.596 149.592,8.703 L148.031,10.967 C146.824,10.127 145.633,9.619 144.482,9.619 C143.332,9.619 142.727,10.145 142.727,10.813 L142.727,10.85 C142.727,11.748 143.313,12.043 145.672,12.645 C148.441,13.361 150,14.361 150,16.74 L150,16.775 C150,19.484 147.934,21.01 144.99,21.01 C142.922,21.01 140.838,20.285 139.199,18.824" id="Fill-9" sketch:type="MSShapeGroup"></path>
            <path d="M27.824,14.031 C27.824,6.348 21.596,0.117 13.912,0.117 C6.23,0.117 0,6.348 0,14.031 C0,19.18 2.799,23.676 6.957,26.08 L6.957,22.744 L6.978,22.731 C4.422,20.693 2.783,17.557 2.783,14.031 C2.783,7.883 7.766,2.9 13.912,2.9 C20.059,2.9 25.041,7.883 25.041,14.031 C25.041,17.547 23.412,20.676 20.867,22.715 L20.867,26.08 C25.027,23.676 27.824,19.18 27.824,14.031" id="Fill-10" sketch:type="MSShapeGroup"></path>
            <path d="M18.088,21.26 L18.088,21.26 C20.58,19.815 22.26,17.119 22.26,14.031 C22.26,11.361 21.008,8.984 19.059,7.459 L17.344,9.648 C18.643,10.666 19.478,12.25 19.478,14.031 C19.478,16.623 17.705,18.799 15.305,19.418 L15.305,27.881 L15.391,27.863 C16.318,27.766 17.217,27.576 18.084,27.303 L18.088,27.301 L18.088,21.26" id="Fill-11" sketch:type="MSShapeGroup"></path>
            <path d="M12.521,19.418 L12.521,19.418 C10.119,18.799 8.35,16.623 8.35,14.031 C8.35,12.25 9.182,10.666 10.482,9.648 L8.766,7.459 C6.818,8.984 5.566,11.361 5.566,14.031 C5.566,17.119 7.244,19.815 9.74,21.26 L9.74,27.301 L9.742,27.303 C10.633,27.584 11.56,27.777 12.518,27.873 L12.521,27.875 L12.521,19.418" id="Fill-12" sketch:type="MSShapeGroup"></path>
            <path d="M15.611,7.076 C15.611,6.135 14.85,5.375 13.912,5.375 C12.975,5.375 12.213,6.135 12.213,7.076 C12.213,8.012 12.975,8.777 13.912,8.777 C14.85,8.777 15.611,8.012 15.611,7.076" id="Fill-13" sketch:type="MSShapeGroup"></path>
            <path d="M16.695,14.031 C16.695,15.566 15.447,16.813 13.912,16.813 C12.377,16.813 11.129,15.566 11.129,14.031 C11.129,12.492 12.377,11.248 13.912,11.248 C15.447,11.248 16.695,12.492 16.695,14.031" id="Fill-14" sketch:type="MSShapeGroup"></path>
        </g>
    </g>
</svg>